<svg width="10" height="10" viewBox="0 0 10 10" fill="none" xmlns="http://www.w3.org/2000/svg">
<path opacity="0.2" d="M5 10C7.76142 10 10 7.76142 10 5C10 2.23858 7.76142 0 5 0C2.23858 0 0 2.23858 0 5C0 7.76142 2.23858 10 5 10Z" fill="#0050FF"/>
<path d="M5 9.02599C7.22349 9.02599 9.02599 7.22349 9.02599 5C9.02599 2.7765 7.22349 0.974005 5 0.974005C2.7765 0.974005 0.974005 2.7765 0.974005 5C0.974005 7.22349 2.7765 9.02599 5 9.02599Z" fill="#0050FF"/>
<path d="M4.53044 6.7213L3.11155 4.89708L3.93668 4.25532L4.60843 5.11905L6.87784 2.72347L7.63677 3.44237L4.53044 6.7213Z" fill="white"/>
</svg>
