<svg width="25" height="22" viewBox="0 0 25 22" fill="none" xmlns="http://www.w3.org/2000/svg">
<path d="M2.69497 2.77502L2.69501 2.77498C3.80577 1.59026 5.3325 0.9403 6.98395 0.9403C8.20649 0.9403 9.33261 1.32488 10.3187 2.07479L10.3188 2.07482C11.1899 2.73741 11.7877 3.5665 12.1334 4.13652L2.69497 2.77502ZM2.69497 2.77502C1.57014 3.97502 0.964272 5.61877 0.964272 7.38927C0.964272 9.2889 1.69108 10.9631 3.22464 12.7829C4.68458 14.5155 6.84135 16.3233 9.28226 18.3691L9.31493 18.3965L9.31491 18.3965M2.69497 2.77502L9.31491 18.3965M9.31491 18.3965L9.31917 18.4M9.31491 18.3965L9.31917 18.4M9.31917 18.4L9.31951 18.4003C9.32019 18.4008 9.32087 18.4014 9.32156 18.402C10.1836 19.1245 11.1581 19.9414 12.1719 20.8132L12.4972 21.093M9.31917 18.4L12.4972 21.093M12.4972 21.093L12.8232 20.8139M12.4972 21.093L12.8232 20.8139M12.8232 20.8139C13.8443 19.9393 14.8214 19.1202 15.6856 18.3962L15.6857 18.3961M12.8232 20.8139L15.6857 18.3961M15.6857 18.3961L15.7233 18.3646C18.162 16.3204 20.3166 14.5143 21.7756 12.7829L21.3932 12.4607M15.6857 18.3961L21.3932 12.4607M21.3932 12.4607L21.7756 12.7829C23.3089 10.963 24.0357 9.28889 24.0357 7.38927C24.0357 5.61877 23.4299 3.97502 22.305 2.77502L21.9402 3.11696L22.305 2.77501C21.1944 1.59025 19.6675 0.9403 18.0162 0.9403C16.7935 0.9403 15.6674 1.32487 14.6813 2.07479L14.6812 2.07486M21.3932 12.4607L14.6812 2.07486M14.6812 2.07486C13.8103 2.73748 13.2125 3.56661 12.8666 4.13653M14.6812 2.07486L12.8666 4.13653M12.8666 4.13653C12.7899 4.26292 12.6563 4.33958 12.5 4.33958M12.8666 4.13653L12.5 4.33958M12.5 4.33958C12.3437 4.33958 12.2102 4.26297 12.1335 4.13664L12.5 4.33958ZM11.8599 21.139L11.8596 21.1387C10.8476 20.2685 9.8723 19.4509 9.0139 18.7315C9.01327 18.731 9.01263 18.7305 9.012 18.7299L9.01142 18.7294L9.01144 18.7294L9.00762 18.7262C6.47754 16.6057 4.34115 14.8129 2.86191 13.0575C1.22577 11.1158 0.5 9.32247 0.5 7.38927C0.5 5.48483 1.16337 3.74653 2.34805 2.4827C3.54552 1.20536 5.18819 0.5 6.98395 0.5C8.31618 0.5 9.53174 0.911935 10.6092 1.73149C11.1555 2.14712 11.6546 2.65871 12.0972 3.26064L12.4999 3.80838L12.9028 3.26072C13.3456 2.65868 13.8445 2.14711 14.3909 1.73154L14.391 1.73152C15.4684 0.911944 16.684 0.5 18.0162 0.5C19.8118 0.5 21.4547 1.20538 22.6522 2.48272C23.8368 3.74653 24.5 5.48481 24.5 7.38927C24.5 9.3225 23.7744 11.1158 22.1383 13.0573L22.1383 13.0573C20.659 14.8129 18.5229 16.6055 15.9931 18.7258C15.1327 19.4468 14.1552 20.2662 13.1402 21.1391L13.1401 21.1392C12.9645 21.2904 12.7371 21.375 12.5 21.375C12.2628 21.375 12.0357 21.2905 11.8599 21.139Z" fill="#0050FF" stroke="#0050FF"/>
</svg>
