<svg width="15" height="15" viewBox="0 0 15 15" fill="none" xmlns="http://www.w3.org/2000/svg">
<g clip-path="url(#clip0_985_324)">
<path d="M2.65845 5.29495C2.49674 5.29495 2.36548 5.4261 2.36548 5.58781C2.36548 5.74951 2.49674 5.88078 2.65845 5.88078C2.82015 5.88078 2.95142 5.74951 2.95142 5.58781C2.95142 5.4261 2.82015 5.29495 2.65845 5.29495Z" fill="white"/>
<path d="M10.867 8.79561C10.8122 8.74068 10.7376 8.70978 10.6599 8.70978C10.6569 8.71035 10.5443 8.70406 10.4527 8.79561L10.2457 9.00264L9.57255 8.32961C11.058 6.24736 10.8321 3.375 9.00275 1.54578C6.94213 -0.514844 3.60663 -0.515187 1.54578 1.54578C-0.514844 3.60629 -0.515187 6.9419 1.54578 9.00275C3.37054 10.8276 6.24175 11.0618 8.32949 9.57255L9.00264 10.2457L8.79561 10.4527C8.68128 10.567 8.68117 10.7527 8.79561 10.8671L12.4994 14.5705C13.0717 15.1432 13.9981 15.1435 14.5705 14.5706C15.1432 13.9984 15.1434 13.0719 14.5705 12.4995L10.867 8.79561ZM9.41691 9.83142L8.78966 9.20417C8.86256 9.13882 8.93386 9.07176 9.00275 9.00275C9.07176 8.93386 9.13882 8.86256 9.20417 8.78978L9.83142 9.41703L9.41691 9.83142ZM1.96006 8.58847C0.128314 6.75685 0.128085 3.79191 1.96006 1.96006C3.79168 0.128314 6.75662 0.128085 8.58847 1.96006C10.4161 3.78756 10.4254 6.75181 8.58847 8.58847C6.73087 10.4463 3.76673 10.3953 1.96006 8.58847V8.58847ZM10.6599 9.41703L11.4883 10.2456L10.2456 11.4883L9.41703 10.6599L10.6599 9.41703ZM14.1563 14.1564C13.8129 14.5 13.2573 14.5001 12.9138 14.1564L10.6599 11.9026L11.9026 10.6599L14.1564 12.9139C14.4999 13.2571 14.5003 13.8127 14.1563 14.1564V14.1564Z" fill="white"/>
<path d="M8.17416 2.37431C6.5721 0.772251 3.9767 0.771336 2.37395 2.37408C0.775211 3.97316 0.775211 6.57509 2.37395 8.17429C3.97693 9.77715 6.57084 9.77726 8.17393 8.17429C9.77302 6.57509 9.77313 3.97328 8.17416 2.37431ZM7.75966 7.7599C6.38579 9.13376 4.16243 9.13411 2.78823 7.76001C1.41791 6.38924 1.41791 4.15902 2.78823 2.78824C4.1614 1.41518 6.38625 1.41484 7.75988 2.78859C9.13043 4.15913 9.13031 6.38924 7.75966 7.7599Z" fill="white"/>
<path d="M5.27412 2.345C4.49111 2.345 3.75549 2.64964 3.20274 3.20274C2.8823 3.52317 2.64644 3.90174 2.50179 4.32815C2.44983 4.48127 2.53177 4.64767 2.68501 4.69962C2.83847 4.75169 3.00464 4.6693 3.0566 4.5164C3.17207 4.17594 3.36067 3.87336 3.61701 3.6169C4.05921 3.17458 4.64767 2.93094 5.27412 2.93094C5.43594 2.93094 5.56709 2.79979 5.56709 2.63797C5.56709 2.47615 5.43594 2.345 5.27412 2.345Z" fill="white"/>
</g>
<defs>
<clipPath id="clip0_985_324">
<rect width="15" height="15" fill="white"/>
</clipPath>
</defs>
</svg>
